<svg width="21" height="18" viewBox="0 0 21 18" fill="none" xmlns="http://www.w3.org/2000/svg">
<path d="M16.4255 6.58476C13.6257 8.16463 14.1025 12.7762 17.1394 12.7762C18.4492 12.7762 19.5828 11.8074 20.0875 10.5688C21.2531 7.70824 18.8292 5.22787 16.4255 6.58476Z" fill="#FF7236"/>
<path d="M13.5497 7.15593C16.9089 7.15593 17.9147 1.54337 14.7233 0.620642C13.2692 0.200377 11.6158 1.20878 11.0848 3.05216C10.4889 5.11829 11.6612 7.15593 13.5497 7.15593Z" fill="#FF7236"/>
<path d="M12.6853 17.1463C12.2188 17.0195 11.3908 16.9377 10.5242 16.9259C9.60809 16.9127 8.64896 16.9773 8.02839 17.1463C6.35233 17.6057 4.07172 16.4943 4.57211 14.186C5.03496 12.052 6.69798 12.1736 7.09124 10.1512C7.48748 8.10728 9.02735 7.12087 10.5242 7.19798C11.9095 7.26953 13.2578 8.25246 13.6252 10.1516C14.0162 12.1754 15.6757 12.0527 16.1379 14.186C16.6401 16.4962 14.3547 17.6016 12.6853 17.1463Z" fill="#FF7236"/>
<path d="M7.63718 7.15604C8.58737 7.15604 9.40342 6.61305 9.85688 5.78201C11.2049 3.3109 8.99093 -0.110038 6.46334 0.62259C3.26643 1.54787 4.2798 7.15604 7.63718 7.15604Z" fill="#FF7236"/>
<path d="M6.11888 10.9387C7.19749 8.34208 4.64082 5.17029 2.19906 6.16828C-0.74218 7.37026 0.555041 12.5545 3.78905 12.5545C4.82692 12.5545 5.7089 11.9258 6.11888 10.9387Z" fill="#FF7236"/>
<path d="M12.6854 17.1463C12.2189 17.0194 11.3909 16.9377 10.5243 16.9259V7.19794C11.9096 7.26949 13.2579 8.25242 13.6253 10.1516C14.0162 12.1754 15.6758 12.0526 16.138 14.1859C16.6402 16.4961 14.3548 17.6015 12.6854 17.1463Z" fill="#FF7236"/>
</svg>
